<?xml version="1.0" encoding="UTF-8" standalone="no"?>
<!-- Created with Inkscape (http://www.inkscape.org/) -->
<svg xmlns:dc="http://purl.org/dc/elements/1.1/" xmlns:cc="http://creativecommons.org/ns#" xmlns:rdf="http://www.w3.org/1999/02/22-rdf-syntax-ns#" xmlns:svg="http://www.w3.org/2000/svg" xmlns="http://www.w3.org/2000/svg" xmlns:sodipodi="http://sodipodi.sourceforge.net/DTD/sodipodi-0.dtd" xmlns:inkscape="http://www.inkscape.org/namespaces/inkscape" width="30mm" height="30mm" viewBox="0 0 30 30" version="1.1" id="svg8" inkscape:version="0.92.4 (5da689c313, 2019-01-14)" sodipodi:docname="favicon.svg">
  <defs id="defs2"/>
  <sodipodi:namedview id="base" pagecolor="#265976" bordercolor="#666666" borderopacity="1.0" inkscape:pageopacity="0" inkscape:pageshadow="2" inkscape:zoom="4.0000001" inkscape:cx="36.07978" inkscape:cy="60.280482" inkscape:document-units="mm" inkscape:current-layer="layer1" showgrid="false" inkscape:snap-intersection-paths="true" inkscape:object-paths="true" inkscape:snap-bbox="false" inkscape:window-width="1920" inkscape:window-height="1017" inkscape:window-x="-8" inkscape:window-y="-8" inkscape:window-maximized="1" inkscape:pagecheckerboard="true"/>
  <metadata id="metadata5">
    <rdf:RDF>
      <cc:Work rdf:about="">
        <dc:format>image/svg+xml</dc:format>
        <dc:type rdf:resource="http://purl.org/dc/dcmitype/StillImage"/>
        <dc:title/>
      </cc:Work>
    </rdf:RDF>
  </metadata>
  <g inkscape:groupmode="layer" id="layer3" inkscape:label="Background" transform="translate(0,-180)">
    <rect style="fill:#265976;fill-opacity:1;stroke-width:0.12014041" id="rect4584" width="30" height="30" x="0" y="180"/>
  </g>
  <g inkscape:label="Layer 1" inkscape:groupmode="layer" id="layer1" transform="translate(0,-267)">
    <g aria-label="MOCASYS" style="font-style:normal;font-variant:normal;font-weight:normal;font-stretch:normal;font-size:24.69444466px;line-height:1.25;font-family:'Florencesans SC Black';-inkscape-font-specification:'Florencesans SC Black, Normal';font-variant-ligatures:normal;font-variant-caps:normal;font-variant-numeric:normal;font-feature-settings:normal;text-align:start;letter-spacing:0px;word-spacing:0px;writing-mode:lr-tb;text-anchor:start;fill:#000000;fill-opacity:1;stroke:none;stroke-width:0.26458332" id="text12" transform="matrix(1.007153,0,0,1.0330344,-78.300196,140.30232)">
      <path d="m 94.533961,137.19334 6.629049,-6.44743 c -2.206037,-2.17311 -4.634323,-3.25966 -7.28486,-3.25966 -2.667,0 -4.955352,0.95485 -6.865056,2.86455 -1.876777,1.87678 -2.815166,4.14867 -2.815166,6.81567 0,2.68346 0.938389,4.96358 2.815166,6.84036 1.893241,1.89324 4.181593,2.83986 6.865056,2.83986 2.683463,0 5.408083,-0.94662 7.28486,-2.83986 z" style="font-style:normal;font-variant:normal;font-weight:normal;font-stretch:normal;font-size:24.69444466px;font-family:'Florencesans SC Black';-inkscape-font-specification:'Florencesans SC Black, Normal';font-variant-ligatures:normal;font-variant-caps:normal;font-variant-numeric:normal;font-feature-settings:normal;text-align:start;writing-mode:lr-tb;text-anchor:start;fill:#f1ffff;fill-opacity:1;stroke-width:0.26458332" id="path18" inkscape:connector-curvature="0" sodipodi:nodetypes="ccscssscc"/>
      <path sodipodi:nodetypes="ccscssscc" inkscape:connector-curvature="0" id="path4670" style="font-style:normal;font-variant:normal;font-weight:normal;font-stretch:normal;font-size:24.69444466px;font-family:'Florencesans SC Black';-inkscape-font-specification:'Florencesans SC Black, Normal';font-variant-ligatures:normal;font-variant-caps:normal;font-variant-numeric:normal;font-feature-settings:normal;text-align:start;writing-mode:lr-tb;text-anchor:start;fill:#ff9b2f;fill-opacity:1;stroke-width:0.2116655" d="m 94.538925,137.19818 5.304583,-5.16817 c -1.764813,-1.73849 -3.707421,-2.60773 -5.827826,-2.60773 -2.133577,0 -3.964239,0.76388 -5.491986,2.29164 -1.501405,1.50143 -2.252108,3.31894 -2.252108,5.45254 0,2.14677 0.750703,3.97086 2.252108,5.47229 1.514576,1.51459 3.345237,2.27189 5.491986,2.27189 2.146746,0 4.326418,-0.7573 5.827826,-2.27189 z"/>
    </g>
    <path d="m 16.636813,277.09808 c 0,-0.50212 -0.173755,-0.93139 -0.521266,-1.28784 -0.347511,-0.35644 -0.766036,-0.53466 -1.255573,-0.53466 -0.486517,0 -0.906551,0.17822 -1.260106,0.53466 -0.34449,0.35334 -0.516735,0.78262 -0.516735,1.28784 0,0.50522 0.172245,0.93449 0.516735,1.28783 0.347511,0.35645 0.767546,0.53467 1.260106,0.53467 0.492559,0 0.911083,-0.17822 1.255573,-0.53467 0.347511,-0.35644 0.521266,-0.78571 0.521266,-1.28783 z" style="font-style:normal;font-variant:normal;font-weight:normal;font-stretch:normal;font-size:24.69444466px;line-height:1.25;font-family:'Florencesans SC Black';-inkscape-font-specification:'Florencesans SC Black, Normal';font-variant-ligatures:normal;font-variant-caps:normal;font-variant-numeric:normal;font-feature-settings:normal;text-align:start;letter-spacing:0px;word-spacing:0px;writing-mode:lr-tb;text-anchor:start;fill:#d23a2f;fill-opacity:1;stroke:none;stroke-width:0.04918528" id="path4604" inkscape:connector-curvature="0" sodipodi:nodetypes="ssscscscs"/>
    <path sodipodi:nodetypes="ssscscscs" inkscape:connector-curvature="0" id="path4606" style="font-style:normal;font-variant:normal;font-weight:normal;font-stretch:normal;font-size:24.69444466px;line-height:1.25;font-family:'Florencesans SC Black';-inkscape-font-specification:'Florencesans SC Black, Normal';font-variant-ligatures:normal;font-variant-caps:normal;font-variant-numeric:normal;font-feature-settings:normal;text-align:start;letter-spacing:0px;word-spacing:0px;writing-mode:lr-tb;text-anchor:start;fill:#d23a2f;fill-opacity:1;stroke:none;stroke-width:0.04918528" d="m 21.899715,278.39409 c 0,-0.50212 -0.173755,-0.9314 -0.521266,-1.28785 -0.347511,-0.35643 -0.766035,-0.53465 -1.255573,-0.53465 -0.486517,0 -0.906551,0.17822 -1.260106,0.53465 -0.34449,0.35334 -0.516735,0.78263 -0.516735,1.28785 0,0.50521 0.172245,0.93449 0.516735,1.28783 0.347511,0.35645 0.767546,0.53467 1.260106,0.53467 0.492559,0 0.911083,-0.17822 1.255573,-0.53467 0.347511,-0.35644 0.521266,-0.78572 0.521266,-1.28783 z"/>
    <path d="m 13.25486,281.08261 c 0,-0.50212 -0.173755,-0.9314 -0.521266,-1.28784 -0.347511,-0.35644 -0.766035,-0.53466 -1.255573,-0.53466 -0.486516,0 -0.906551,0.17822 -1.260106,0.53466 -0.3444886,0.35334 -0.5167336,0.78262 -0.5167336,1.28784 0,0.50521 0.172245,0.93449 0.5167336,1.28783 0.347512,0.35645 0.767547,0.53467 1.260106,0.53467 0.492559,0 0.911084,-0.17822 1.255573,-0.53467 0.347511,-0.35644 0.521266,-0.78571 0.521266,-1.28783 z" style="font-style:normal;font-variant:normal;font-weight:normal;font-stretch:normal;font-size:24.69444466px;line-height:1.25;font-family:'Florencesans SC Black';-inkscape-font-specification:'Florencesans SC Black, Normal';font-variant-ligatures:normal;font-variant-caps:normal;font-variant-numeric:normal;font-feature-settings:normal;text-align:start;letter-spacing:0px;word-spacing:0px;writing-mode:lr-tb;text-anchor:start;fill:#d23a2f;fill-opacity:1;stroke:none;stroke-width:0.04918528" id="path4608" inkscape:connector-curvature="0" sodipodi:nodetypes="ssscscscs"/>
    <path sodipodi:nodetypes="ssscscscs" inkscape:connector-curvature="0" id="path4625" style="font-style:normal;font-variant:normal;font-weight:normal;font-stretch:normal;font-size:24.69444466px;line-height:1.25;font-family:'Florencesans SC Black';-inkscape-font-specification:'Florencesans SC Black, Normal';font-variant-ligatures:normal;font-variant-caps:normal;font-variant-numeric:normal;font-feature-settings:normal;text-align:start;letter-spacing:0px;word-spacing:0px;writing-mode:lr-tb;text-anchor:start;fill:#d23a2f;fill-opacity:1;stroke:none;stroke-width:0.04918528" d="m 18.565059,281.917 c 0,-0.50212 -0.173755,-0.93139 -0.521266,-1.28784 -0.347511,-0.35644 -0.766035,-0.53466 -1.255573,-0.53466 -0.486516,0 -0.906551,0.17822 -1.260106,0.53466 -0.344489,0.35334 -0.516735,0.78262 -0.516735,1.28784 0,0.50522 0.172246,0.93449 0.516735,1.28783 0.347511,0.35645 0.767547,0.53467 1.260106,0.53467 0.492559,0 0.911084,-0.17822 1.255573,-0.53467 0.347511,-0.35644 0.521266,-0.78571 0.521266,-1.28783 z"/>
    <path sodipodi:nodetypes="ssscscscs" inkscape:connector-curvature="0" id="path4627" style="font-style:normal;font-variant:normal;font-weight:normal;font-stretch:normal;font-size:24.69444466px;line-height:1.25;font-family:'Florencesans SC Black';-inkscape-font-specification:'Florencesans SC Black, Normal';font-variant-ligatures:normal;font-variant-caps:normal;font-variant-numeric:normal;font-feature-settings:normal;text-align:start;letter-spacing:0px;word-spacing:0px;writing-mode:lr-tb;text-anchor:start;fill:#d23a2f;fill-opacity:1;stroke:none;stroke-width:0.04918528" d="m 15.079594,286.1027 c 0,-0.50212 -0.173755,-0.9314 -0.521266,-1.28784 -0.347511,-0.35644 -0.766035,-0.53466 -1.255573,-0.53466 -0.486517,0 -0.906551,0.17822 -1.260106,0.53466 -0.344489,0.35333 -0.516735,0.78262 -0.516735,1.28784 0,0.50521 0.172246,0.93449 0.516735,1.28783 0.347511,0.35645 0.767547,0.53467 1.260106,0.53467 0.492559,0 0.911083,-0.17822 1.255573,-0.53467 0.347511,-0.35644 0.521266,-0.78571 0.521266,-1.28783 z"/>
    <path sodipodi:nodetypes="ssscscsscs" inkscape:connector-curvature="0" id="path4633" style="font-style:normal;font-variant:normal;font-weight:normal;font-stretch:normal;font-size:24.69444466px;line-height:1.25;font-family:'Florencesans SC Black';-inkscape-font-specification:'Florencesans SC Black, Normal';font-variant-ligatures:normal;font-variant-caps:normal;font-variant-numeric:normal;font-feature-settings:normal;text-align:start;letter-spacing:0px;word-spacing:0px;writing-mode:lr-tb;text-anchor:start;fill:#d23a2f;fill-opacity:1;stroke:none;stroke-width:0.04918528" d="m 19.981596,286.99662 c 0,-0.50212 -0.173755,-0.9314 -0.521266,-1.28784 -0.347511,-0.35644 -0.766036,-0.53466 -1.255573,-0.53466 -0.486517,0 -0.906551,0.17822 -1.260106,0.53466 -0.34449,0.35334 -0.516735,0.78262 -0.516735,1.28784 0,0.50521 0.172245,0.93449 0.516735,1.28783 0.03241,0.0332 0.06545,0.0649 0.09912,0.0951 0.327368,0.29306 0.714365,0.43959 1.160988,0.43959 0.492559,0 0.911083,-0.17822 1.255573,-0.53467 0.347511,-0.35644 0.521266,-0.78571 0.521266,-1.28783 z"/>
    <path style="fill:#265976;fill-opacity:1;stroke-width:0.26458332" d="m 23.586433,275.36734 v 13.69899 l -6.671467,-7.03357 z" id="rect4690" inkscape:connector-curvature="0" sodipodi:nodetypes="cccc"/>
  </g>
</svg>