<?xml version="1.0" encoding="UTF-8" standalone="no"?>
<!-- Created with Inkscape (http://www.inkscape.org/) -->
<svg xmlns:dc="http://purl.org/dc/elements/1.1/" xmlns:cc="http://creativecommons.org/ns#" xmlns:rdf="http://www.w3.org/1999/02/22-rdf-syntax-ns#" xmlns:svg="http://www.w3.org/2000/svg" xmlns="http://www.w3.org/2000/svg" xmlns:sodipodi="http://sodipodi.sourceforge.net/DTD/sodipodi-0.dtd" xmlns:inkscape="http://www.inkscape.org/namespaces/inkscape" width="140mm" height="30mm" viewBox="0 0 140 30" version="1.1" id="svg8" inkscape:version="0.92.4 (5da689c313, 2019-01-14)" sodipodi:docname="mocasys_logo_v2.svg">
  <defs id="defs2"/>
  <sodipodi:namedview id="base" pagecolor="#265976" bordercolor="#666666" borderopacity="1.0" inkscape:pageopacity="0" inkscape:pageshadow="2" inkscape:zoom="1.4" inkscape:cx="293.33928" inkscape:cy="60.096833" inkscape:document-units="mm" inkscape:current-layer="layer1" showgrid="false" inkscape:snap-intersection-paths="true" inkscape:object-paths="true" inkscape:snap-bbox="false" inkscape:window-width="1920" inkscape:window-height="1017" inkscape:window-x="-8" inkscape:window-y="-8" inkscape:window-maximized="1" inkscape:pagecheckerboard="true"/>
  <metadata id="metadata5">
    <rdf:RDF>
      <cc:Work rdf:about="">
        <dc:format>image/svg+xml</dc:format>
        <dc:type rdf:resource="http://purl.org/dc/dcmitype/StillImage"/>
        <dc:title/>
      </cc:Work>
    </rdf:RDF>
  </metadata>
  <g inkscape:groupmode="layer" id="layer3" inkscape:label="Background" transform="translate(0,-180)">
    <rect style="fill:#265976;fill-opacity:1;stroke-width:0.25953296" id="rect4584" width="140" height="30" x="0" y="180"/>
  </g>
  <g inkscape:label="Layer 1" inkscape:groupmode="layer" id="layer1" transform="translate(0,-267)">
    <g aria-label="MOCASYS" style="font-style:normal;font-variant:normal;font-weight:normal;font-stretch:normal;font-size:24.69444466px;line-height:1.25;font-family:'Florencesans SC Black';-inkscape-font-specification:'Florencesans SC Black, Normal';font-variant-ligatures:normal;font-variant-caps:normal;font-variant-numeric:normal;font-feature-settings:normal;text-align:start;letter-spacing:0px;word-spacing:0px;writing-mode:lr-tb;text-anchor:start;fill:#000000;fill-opacity:1;stroke:none;stroke-width:0.26458332" id="text12" transform="matrix(1.007153,0,0,1.0330344,-36.968689,140.30232)">
      <path d="m 60.067979,146.42689 v -18.49614 h -4.469694 l -4.741333,12.96458 -4.716639,-12.96458 h -4.469695 v 18.49614 h 3.358445 v -11.75456 l 4.272139,11.75456 h 3.136194 l 4.272139,-11.70517 v 11.70517 z" style="font-style:normal;font-variant:normal;font-weight:normal;font-stretch:normal;font-size:24.69444466px;font-family:'Florencesans SC Black';-inkscape-font-specification:'Florencesans SC Black, Normal';font-variant-ligatures:normal;font-variant-caps:normal;font-variant-numeric:normal;font-feature-settings:normal;text-align:start;writing-mode:lr-tb;text-anchor:start;fill:#f1ffff;fill-opacity:1;stroke-width:0.26458332" id="path14" inkscape:connector-curvature="0"/>
      <path d="m 82.095424,137.16647 c 0,-2.667 -0.94662,-4.94712 -2.839861,-6.84036 -1.893241,-1.89324 -4.173361,-2.83986 -6.840361,-2.83986 -2.650537,0 -4.938889,0.94662 -6.865056,2.83986 -1.876777,1.87677 -2.815166,4.15689 -2.815166,6.84036 0,2.68346 0.938389,4.96358 2.815166,6.84036 1.893241,1.89324 4.181593,2.83986 6.865056,2.83986 2.683463,0 4.963583,-0.94662 6.840361,-2.83986 1.893241,-1.89324 2.839861,-4.17336 2.839861,-6.84036 z m -3.383139,0 c 0,1.74507 -0.617361,3.22674 -1.852083,4.445 -1.251185,1.25119 -2.732852,1.87678 -4.445,1.87678 -1.728611,0 -3.210278,-0.62559 -4.445,-1.87678 -1.251185,-1.23472 -1.876778,-2.71639 -1.876778,-4.445 0,-1.71215 0.625593,-3.19381 1.876778,-4.445 1.218259,-1.23472 2.699926,-1.85208 4.445,-1.85208 1.728611,0 3.210278,0.61736 4.445,1.85208 1.234722,1.23472 1.852083,2.71639 1.852083,4.445 z" style="font-style:normal;font-variant:normal;font-weight:normal;font-stretch:normal;font-size:24.69444466px;font-family:'Florencesans SC Black';-inkscape-font-specification:'Florencesans SC Black, Normal';font-variant-ligatures:normal;font-variant-caps:normal;font-variant-numeric:normal;font-feature-settings:normal;text-align:start;writing-mode:lr-tb;text-anchor:start;fill:#f1ffff;fill-opacity:1;stroke-width:0.26458332" id="path16" inkscape:connector-curvature="0" sodipodi:nodetypes="ssscscscsscscscsss"/>
      <path d="m 98.718261,141.24105 c -1.531055,1.49813 -3.144426,2.2472 -4.840111,2.2472 -1.728611,0 -3.210278,-0.62559 -4.445,-1.87678 -1.251185,-1.23472 -1.876778,-2.71639 -1.876778,-4.445 0,-1.71215 0.625593,-3.19381 1.876778,-4.445 1.218259,-1.23472 2.699926,-1.85208 4.445,-1.85208 1.712148,0 3.325518,0.74083 4.840111,2.2225 l 2.444749,-2.34598 c -2.206037,-2.17311 -4.634323,-3.25966 -7.28486,-3.25966 -2.667,0 -4.955352,0.95485 -6.865056,2.86455 -1.876777,1.87678 -2.815166,4.14867 -2.815166,6.81567 0,2.68346 0.938389,4.96358 2.815166,6.84036 1.893241,1.89324 4.181593,2.83986 6.865056,2.83986 2.683463,0 5.408083,-0.94662 7.28486,-2.83986 z" style="font-style:normal;font-variant:normal;font-weight:normal;font-stretch:normal;font-size:24.69444466px;font-family:'Florencesans SC Black';-inkscape-font-specification:'Florencesans SC Black, Normal';font-variant-ligatures:normal;font-variant-caps:normal;font-variant-numeric:normal;font-feature-settings:normal;text-align:start;writing-mode:lr-tb;text-anchor:start;fill:#f1ffff;fill-opacity:1;stroke-width:0.26458332" id="path18" inkscape:connector-curvature="0" sodipodi:nodetypes="cscscsccscssscc"/>
      <g id="g49">
        <g id="g45">
          <path id="path20" transform="matrix(0.26458333,0,0,0.26458333,0,87)" style="font-style:normal;font-variant:normal;font-weight:normal;font-stretch:normal;font-size:24.69444466px;font-family:'Florencesans SC Black';-inkscape-font-specification:'Florencesans SC Black, Normal';font-variant-ligatures:normal;font-variant-caps:normal;font-variant-numeric:normal;font-feature-settings:normal;text-align:start;writing-mode:lr-tb;text-anchor:start;fill:#f1ffff;fill-opacity:1;stroke-width:0.99999994" d="m 412.99805,154.69922 -25.48047,69.90625 h 13.5332 c 6.01709,-16.30619 11.906,-32.65918 17.82813,-49 5.87369,16.3704 11.83451,32.70749 17.91992,49 h 13.5332 l -25.48047,-69.90625 z" inkscape:connector-curvature="0" sodipodi:nodetypes="cccccccc"/>
        </g>
      </g>
      <path d="m 135.82784,141.14227 q 0,-3.48191 -3.43253,-4.76602 -0.69144,-0.12348 -1.3335,-0.24695 -0.64206,-0.14816 -1.3335,-0.29633 -0.69144,-0.14817 -1.35819,-0.27164 -0.66675,-0.14817 -1.3335,-0.29633 -2.44475,-0.54328 -2.44475,-2.12373 0,-1.08655 1.18533,-1.72861 1.08655,-0.54327 2.51883,-0.54327 1.50636,0 2.54353,0.56797 1.18533,0.64205 1.18533,2.32128 h 3.35845 q 0,-3.30906 -2.39536,-4.8895 -2.04964,-1.38289 -4.69195,-1.38289 -2.61761,0 -4.66725,1.38289 -2.42005,1.60513 -2.42005,4.27213 0,3.556 3.33375,4.81542 0.66675,0.14817 1.38289,0.32103 0.71613,0.17286 1.40758,0.29633 l -0.0247,-0.0247 q 0.69145,0.14816 1.3582,0.29633 0.69144,0.14817 1.35819,0.27164 v -0.0247 q 2.42006,0.56797 2.42006,2.04963 0,1.21003 -1.3335,1.82739 -1.11125,0.51859 -2.81517,0.51859 -1.65453,0 -2.81516,-0.54328 l 0.0247,0.0247 q -1.35819,-0.64205 -1.35819,-2.42005 h -3.35845 q 0,3.40783 2.61761,4.98828 2.07434,1.3088 4.8895,1.3088 2.79047,0 4.9142,-1.28411 2.61761,-1.65453 2.61761,-4.42031 z" style="font-style:normal;font-variant:normal;font-weight:normal;font-stretch:normal;font-size:24.69444466px;font-family:'Florencesans SC Black';-inkscape-font-specification:'Florencesans SC Black, Normal';font-variant-ligatures:normal;font-variant-caps:normal;font-variant-numeric:normal;font-feature-settings:normal;text-align:start;writing-mode:lr-tb;text-anchor:start;fill:#f1ffff;fill-opacity:1;stroke-width:0.26458332" id="path22" inkscape:connector-curvature="0"/>
      <path d="m 154.36603,127.93075 h -4.17336 l -4.445,6.29708 -4.4203,-6.29708 h -4.17336 l 6.91444,9.80369 v 8.69245 h 3.38314 v -8.69245 z" style="font-style:normal;font-variant:normal;font-weight:normal;font-stretch:normal;font-size:24.69444466px;font-family:'Florencesans SC Black';-inkscape-font-specification:'Florencesans SC Black, Normal';font-variant-ligatures:normal;font-variant-caps:normal;font-variant-numeric:normal;font-feature-settings:normal;text-align:start;writing-mode:lr-tb;text-anchor:start;fill:#f1ffff;fill-opacity:1;stroke-width:0.26458332" id="path24" inkscape:connector-curvature="0" sodipodi:nodetypes="cccccccccc"/>
      <path d="m 170.74733,141.14227 q 0,-3.48191 -3.43253,-4.76602 -0.69145,-0.12348 -1.3335,-0.24695 -0.64206,-0.14816 -1.3335,-0.29633 -0.69145,-0.14817 -1.3582,-0.27164 -0.66675,-0.14817 -1.3335,-0.29633 -2.44475,-0.54328 -2.44475,-2.12373 0,-1.08655 1.18534,-1.72861 1.08655,-0.54327 2.51883,-0.54327 1.50636,0 2.54353,0.56797 1.18533,0.64205 1.18533,2.32128 h 3.35845 q 0,-3.30906 -2.39537,-4.8895 -2.04963,-1.38289 -4.69194,-1.38289 -2.61761,0 -4.66725,1.38289 -2.42006,1.60513 -2.42006,4.27213 0,3.556 3.33375,4.81542 0.66675,0.14817 1.38289,0.32103 0.71614,0.17286 1.40759,0.29633 l -0.0247,-0.0247 q 0.69145,0.14816 1.3582,0.29633 0.69144,0.14817 1.35819,0.27164 v -0.0247 q 2.42006,0.56797 2.42006,2.04963 0,1.21003 -1.3335,1.82739 -1.11125,0.51859 -2.81517,0.51859 -1.65453,0 -2.81517,-0.54328 l 0.0247,0.0247 q -1.3582,-0.64205 -1.3582,-2.42005 h -3.35844 q 0,3.40783 2.61761,4.98828 2.07433,1.3088 4.8895,1.3088 2.79047,0 4.91419,-1.28411 2.61762,-1.65453 2.61762,-4.42031 z" style="font-style:normal;font-variant:normal;font-weight:normal;font-stretch:normal;font-size:24.69444466px;font-family:'Florencesans SC Black';-inkscape-font-specification:'Florencesans SC Black, Normal';font-variant-ligatures:normal;font-variant-caps:normal;font-variant-numeric:normal;font-feature-settings:normal;text-align:start;writing-mode:lr-tb;text-anchor:start;fill:#f1ffff;fill-opacity:1;stroke-width:0.26458332" id="path26" inkscape:connector-curvature="0"/>
      <path style="fill:#ff9b20;fill-opacity:1;stroke-width:0.07000434" d="m 110.82838,139.72652 2.46223,6.70034 h -4.91583 z" id="rect41" inkscape:connector-curvature="0" sodipodi:nodetypes="cccc"/>
      <path style="fill:#ff9b20;fill-opacity:1;stroke-width:0.07000434" d="m 143.28842,127.93075 h 4.89294 l -2.43369,3.35812 z" id="rect68" inkscape:connector-curvature="0" sodipodi:nodetypes="cccc"/>
      <path sodipodi:nodetypes="ssscscscs" inkscape:connector-curvature="0" id="path4592" style="font-style:normal;font-variant:normal;font-weight:normal;font-stretch:normal;font-size:24.69444466px;font-family:'Florencesans SC Black';-inkscape-font-specification:'Florencesans SC Black, Normal';font-variant-ligatures:normal;font-variant-caps:normal;font-variant-numeric:normal;font-feature-settings:normal;text-align:start;writing-mode:lr-tb;text-anchor:start;fill:#ff9b20;fill-opacity:1;stroke-width:0.11906249" d="m 76.771302,137.16647 c 0,-1.20015 -0.425979,-2.2262 -1.277938,-3.07816 -0.851958,-0.85196 -1.878012,-1.27794 -3.078162,-1.27794 -1.192742,0 -2.222501,0.42598 -3.089275,1.27794 -0.84455,0.84454 -1.266825,1.87059 -1.266825,3.07816 0,1.20756 0.422275,2.23361 1.266825,3.07816 0.851958,0.85196 1.881716,1.27794 3.089275,1.27794 1.207558,0 2.233612,-0.42598 3.078162,-1.27794 0.851959,-0.85196 1.277938,-1.87801 1.277938,-3.07816 z"/>
    </g>
  </g>
</svg>